<svg width="37" height="26" viewBox="0 0 37 26" fill="none" xmlns="http://www.w3.org/2000/svg">
<path d="M3.00014 8.16V9C3.00014 9 2 9.5 2.00014 8.5C2.00022 7.93069 2.32432 7.89941 2.60348 7.97807M3.00014 8.16C3.00014 8.16 2.81467 8.03757 2.60348 7.97807M3.00014 8.16C3.00014 8.16 3.12852 7.98027 3.37431 7.68221M32.7001 17.4C32.7001 17.4 27.2001 10.8 18.4001 10.8C5.20014 10.8 5.20014 24 14.0001 24C27.2001 24 28.3001 2 14.0001 2C8.5275 2 4.56748 6.23533 3.37431 7.68221M32.7001 17.4L34.0001 15.5L35.0001 19L31.0001 19.5L32.7001 17.4ZM2.60348 7.97807L3.37431 7.68221M3.37431 7.68221L2.5 8.5" stroke="black" stroke-width="3" stroke-linecap="round" stroke-linejoin="round"/>
</svg>
