<svg width="22" height="23" viewBox="0 0 22 23" fill="none" xmlns="http://www.w3.org/2000/svg">
<path d="M10.7018 12.5915C11.3551 12.5915 11.9936 12.3978 12.5368 12.0349C13.0799 11.672 13.5033 11.1562 13.7532 10.5526C14.0032 9.94914 14.0686 9.28506 13.9412 8.64438C13.8137 8.0037 13.4992 7.4152 13.0373 6.95329C12.5754 6.49139 11.9869 6.17683 11.3462 6.04939C10.7055 5.92195 10.0414 5.98736 9.43792 6.23734C8.83441 6.48732 8.31859 6.91065 7.95567 7.45379C7.59276 7.99693 7.39905 8.63549 7.39905 9.28872C7.39905 10.1647 7.74702 11.0048 8.36642 11.6242C8.98581 12.2435 9.82589 12.5915 10.7018 12.5915ZM10.7018 8.18779C10.9196 8.18779 11.1324 8.25236 11.3135 8.37333C11.4945 8.4943 11.6356 8.66624 11.719 8.86741C11.8023 9.06858 11.8241 9.28994 11.7816 9.5035C11.7391 9.71706 11.6343 9.91323 11.4803 10.0672C11.3264 10.2212 11.1302 10.326 10.9166 10.3685C10.7031 10.411 10.4817 10.3892 10.2805 10.3059C10.0794 10.2225 9.90743 10.0814 9.78646 9.90037C9.66548 9.71932 9.60091 9.50647 9.60091 9.28872C9.60091 8.99674 9.71691 8.71671 9.92337 8.51025C10.1298 8.30378 10.4099 8.18779 10.7018 8.18779ZM21.2598 18.2723C20.7222 16.4894 19.7411 14.872 18.4084 13.5713C19.1502 12.2305 19.5294 10.7193 19.5085 9.18699C19.4875 7.65471 19.0671 6.15442 18.2889 4.83436C17.5106 3.51429 16.4013 2.42012 15.0708 1.65998C13.7402 0.899827 12.2343 0.5 10.7018 0.5C9.16943 0.5 7.66353 0.899827 6.33294 1.65998C5.00235 2.42012 3.89312 3.51429 3.11484 4.83436C2.33656 6.15442 1.91618 7.65471 1.89521 9.18699C1.87425 10.7193 2.25344 12.2305 2.99532 13.5713C1.65473 14.8677 0.669164 16.4863 0.132899 18.2723C-0.0104093 18.7621 -0.0382681 19.2785 0.0515091 19.7808C0.141286 20.2832 0.346257 20.7579 0.650337 21.1678C0.96015 21.5845 1.36385 21.9223 1.82868 22.1537C2.2935 22.3852 2.80635 22.5038 3.3256 22.4999H18.0781C18.5955 22.5021 19.1061 22.3826 19.5689 22.1512C20.0317 21.9199 20.4336 21.583 20.7423 21.1678C21.0464 20.7579 21.2514 20.2832 21.3412 19.7808C21.431 19.2785 21.4031 18.7621 21.2598 18.2723ZM10.7018 2.68313C12.0083 2.68313 13.2854 3.07054 14.3717 3.79637C15.458 4.5222 16.3047 5.55386 16.8046 6.76087C17.3046 7.96789 17.4354 9.29605 17.1805 10.5774C16.9256 11.8588 16.2965 13.0358 15.3727 13.9596C14.4489 14.8834 13.2719 15.5125 11.9905 15.7674C10.7092 16.0223 9.38101 15.8915 8.174 15.3915C6.96698 14.8915 5.93533 14.0449 5.2095 12.9586C4.48367 11.8723 4.09625 10.5952 4.09625 9.28872C4.09625 7.53681 4.7922 5.85665 6.03099 4.61786C7.26978 3.37907 8.94993 2.68313 10.7018 2.68313ZM18.9809 19.8467C18.8773 19.9884 18.7413 20.1034 18.5842 20.1819C18.4272 20.2604 18.2537 20.3002 18.0781 20.298H3.3256C3.15004 20.3002 2.97649 20.2604 2.81945 20.1819C2.6624 20.1034 2.52642 19.9884 2.42284 19.8467C2.32385 19.7103 2.25748 19.553 2.22885 19.387C2.20022 19.2209 2.21009 19.0505 2.2577 18.8888C2.65289 17.5581 3.36283 16.3421 4.32745 15.3438C5.14996 16.2065 6.13901 16.8932 7.23469 17.3625C8.33039 17.8317 9.50992 18.0736 10.7018 18.0736C11.8938 18.0736 13.0733 17.8317 14.169 17.3625C15.2647 16.8932 16.2537 16.2065 17.0762 15.3438C18.0409 16.3421 18.7508 17.5581 19.146 18.8888C19.1936 19.0505 19.2035 19.2209 19.1748 19.387C19.1462 19.553 19.0798 19.7103 18.9809 19.8467Z" fill="black"/>
</svg>
