<svg width="22" height="22" viewBox="0 0 22 22" fill="none" xmlns="http://www.w3.org/2000/svg">
<path d="M10.7018 12.0915C11.3551 12.0915 11.9936 11.8978 12.5368 11.5349C13.0799 11.172 13.5033 10.6562 13.7532 10.0526C14.0032 9.44914 14.0686 8.78506 13.9412 8.14438C13.8137 7.5037 13.4992 6.9152 13.0373 6.45329C12.5754 5.99139 11.9869 5.67683 11.3462 5.54939C10.7055 5.42195 10.0414 5.48736 9.43792 5.73734C8.83441 5.98732 8.31859 6.41065 7.95567 6.95379C7.59276 7.49693 7.39905 8.13549 7.39905 8.78872C7.39905 9.66468 7.74702 10.5048 8.36642 11.1242C8.98581 11.7435 9.82589 12.0915 10.7018 12.0915ZM10.7018 7.68779C10.9196 7.68779 11.1324 7.75236 11.3135 7.87333C11.4945 7.9943 11.6356 8.16624 11.719 8.36741C11.8023 8.56858 11.8241 8.78994 11.7816 9.0035C11.7391 9.21706 11.6343 9.41323 11.4803 9.5672C11.3264 9.72117 11.1302 9.82602 10.9166 9.8685C10.7031 9.91098 10.4817 9.88918 10.2805 9.80585C10.0794 9.72252 9.90743 9.58142 9.78646 9.40037C9.66548 9.21932 9.60091 9.00647 9.60091 8.78872C9.60091 8.49674 9.71691 8.21671 9.92337 8.01025C10.1298 7.80378 10.4099 7.68779 10.7018 7.68779ZM21.2598 17.7723C20.7222 15.9894 19.7411 14.372 18.4084 13.0713C19.1502 11.7305 19.5294 10.2193 19.5085 8.68699C19.4875 7.15471 19.0671 5.65442 18.2889 4.33436C17.5106 3.01429 16.4013 1.92012 15.0708 1.15998C13.7402 0.399827 12.2343 0 10.7018 0C9.16943 0 7.66353 0.399827 6.33294 1.15998C5.00235 1.92012 3.89312 3.01429 3.11484 4.33436C2.33656 5.65442 1.91618 7.15471 1.89521 8.68699C1.87425 10.2193 2.25344 11.7305 2.99532 13.0713C1.65473 14.3677 0.669164 15.9863 0.132899 17.7723C-0.0104093 18.2621 -0.0382681 18.7785 0.0515091 19.2808C0.141286 19.7832 0.346257 20.2579 0.650337 20.6678C0.96015 21.0845 1.36385 21.4223 1.82868 21.6537C2.2935 21.8852 2.80635 22.0038 3.3256 21.9999H18.0781C18.5955 22.0021 19.1061 21.8826 19.5689 21.6512C20.0317 21.4199 20.4336 21.083 20.7423 20.6678C21.0464 20.2579 21.2514 19.7832 21.3412 19.2808C21.431 18.7785 21.4031 18.2621 21.2598 17.7723ZM10.7018 2.18313C12.0083 2.18313 13.2854 2.57054 14.3717 3.29637C15.458 4.0222 16.3047 5.05386 16.8046 6.26087C17.3046 7.46789 17.4354 8.79605 17.1805 10.0774C16.9256 11.3588 16.2965 12.5358 15.3727 13.4596C14.4489 14.3834 13.2719 15.0125 11.9905 15.2674C10.7092 15.5223 9.38101 15.3915 8.174 14.8915C6.96698 14.3915 5.93533 13.5449 5.2095 12.4586C4.48367 11.3723 4.09625 10.0952 4.09625 8.78872C4.09625 7.03681 4.7922 5.35665 6.03099 4.11786C7.26978 2.87907 8.94993 2.18313 10.7018 2.18313ZM18.9809 19.3467C18.8773 19.4884 18.7413 19.6034 18.5842 19.6819C18.4272 19.7604 18.2537 19.8002 18.0781 19.798H3.3256C3.15004 19.8002 2.97649 19.7604 2.81945 19.6819C2.6624 19.6034 2.52642 19.4884 2.42284 19.3467C2.32385 19.2103 2.25748 19.053 2.22885 18.887C2.20022 18.7209 2.21009 18.5505 2.2577 18.3888C2.65289 17.0581 3.36283 15.8421 4.32745 14.8438C5.14996 15.7065 6.13901 16.3932 7.23469 16.8625C8.33039 17.3317 9.50992 17.5736 10.7018 17.5736C11.8938 17.5736 13.0733 17.3317 14.169 16.8625C15.2647 16.3932 16.2537 15.7065 17.0762 14.8438C18.0409 15.8421 18.7508 17.0581 19.146 18.3888C19.1936 18.5505 19.2035 18.7209 19.1748 18.887C19.1462 19.053 19.0798 19.2103 18.9809 19.3467Z" fill="white"/>
</svg>
