<svg width="22" height="22" viewBox="0 0 22 22" fill="none" xmlns="http://www.w3.org/2000/svg">
<path d="M8.8 5.5C8.79978 7.0297 9.25519 8.52481 10.1081 9.79463C10.9611 11.0645 12.173 12.0514 13.5892 12.6297C15.0053 13.208 16.5617 13.3514 18.0597 13.0415C19.5577 12.7317 20.9294 11.9826 22 10.89V11C22 17.0753 17.0753 22 11 22C4.9247 22 0 17.0753 0 11C0 4.9247 4.9247 0 11 0H11.11C10.3774 0.716238 9.79566 1.57186 9.39893 2.51645C9.0022 3.46104 8.79856 4.47548 8.8 5.5ZM2.2 11C2.1992 12.9635 2.85508 14.8708 4.06328 16.4186C5.27148 17.9663 6.9626 19.0655 8.86755 19.5413C10.7725 20.0171 12.7819 19.8421 14.5759 19.0443C16.37 18.2464 17.8457 16.8715 18.7682 15.1382C17.1264 15.525 15.413 15.4859 13.7905 15.0246C12.168 14.5633 10.6904 13.6951 9.49763 12.5024C8.30491 11.3096 7.43671 9.83196 6.97541 8.2095C6.51411 6.58704 6.475 4.87362 6.8618 3.2318C5.45334 3.98215 4.27546 5.10143 3.45428 6.46981C2.6331 7.83818 2.19953 9.40413 2.2 11Z" fill="white"/>
</svg>
