<svg width="23" height="22" viewBox="0 0 23 22" fill="none" xmlns="http://www.w3.org/2000/svg">
<path d="M6.61905 11.6905H8.71429V13.7857H2.42857V11.6905H4.52381C4.52381 10.4473 4.89246 9.23201 5.58314 8.19833C6.27383 7.16465 7.25552 6.35899 8.40409 5.88324C9.55265 5.40749 10.8165 5.28301 12.0358 5.52555C13.2551 5.76808 14.3751 6.36674 15.2542 7.24581C16.1333 8.12488 16.7319 9.24489 16.9745 10.4642C17.217 11.6835 17.0925 12.9474 16.6168 14.0959C16.141 15.2445 15.3354 16.2262 14.3017 16.9169C13.268 17.6075 12.0527 17.9762 10.8095 17.9762V15.881C11.6383 15.881 12.4485 15.6352 13.1376 15.1747C13.8267 14.7143 14.3639 14.0598 14.681 13.2941C14.9982 12.5284 15.0812 11.6858 14.9195 10.873C14.7578 10.0601 14.3587 9.31342 13.7726 8.72737C13.1866 8.14132 12.4399 7.74221 11.627 7.58052C10.8142 7.41883 9.97161 7.50182 9.2059 7.81899C8.44019 8.13615 7.78573 8.67326 7.32527 9.36238C6.86482 10.0515 6.61905 10.8617 6.61905 11.6905ZM4.52381 20.0714H13.9524V22.1667H4.52381V20.0714ZM0.333334 15.881H8.71429V17.9762H0.333334V15.881ZM9.76191 0.166672H11.8571V3.30953H9.76191V0.166672ZM1.92048 4.28277L3.40181 2.80143L5.62381 5.02343L4.14248 6.50477L1.92048 4.28277ZM15.9952 18.3575L17.4766 16.8762L19.6986 19.0982L18.2172 20.5795L15.9952 18.3575ZM18.2172 2.80039L19.6986 4.28277L17.4766 6.50477L15.9952 5.02343L18.2172 2.80143V2.80039ZM22.3333 10.6429V12.7381H19.1905V10.6429H22.3333Z" fill="black"/>
</svg>
