<svg width="55" height="61" viewBox="0 0 55 61" fill="none" xmlns="http://www.w3.org/2000/svg">
<path d="M24.4012 30.1934V45.7492C24.4012 46.5582 24.7226 47.334 25.2946 47.906C25.8666 48.478 26.6424 48.7994 27.4514 48.7994C28.2604 48.7994 29.0362 48.478 29.6082 47.906C30.1802 47.334 30.5016 46.5582 30.5016 45.7492V30.1934C34.2046 29.4376 37.495 27.3336 39.735 24.2896C41.9749 21.2455 43.0048 17.4782 42.6249 13.7179C42.2451 9.9577 40.4825 6.47245 37.679 3.93788C34.8755 1.40332 31.2308 0 27.4514 0C23.672 0 20.0273 1.40332 17.2238 3.93788C14.4203 6.47245 12.6577 9.9577 12.2778 13.7179C11.898 17.4782 12.9279 21.2455 15.1678 24.2896C17.4078 27.3336 20.6982 29.4376 24.4012 30.1934ZM27.4514 6.0972C29.2612 6.0972 31.0303 6.63387 32.5351 7.63933C34.0399 8.6448 35.2128 10.0739 35.9053 11.7459C36.5979 13.418 36.7791 15.2578 36.426 17.0328C36.073 18.8078 35.2015 20.4383 33.9218 21.718C32.642 22.9977 31.0116 23.8692 29.2366 24.2223C27.4616 24.5754 25.6217 24.3942 23.9497 23.7016C22.2776 23.009 20.8485 21.8362 19.8431 20.3314C18.8376 18.8266 18.3009 17.0575 18.3009 15.2477C18.3009 12.8208 19.265 10.4934 20.981 8.77731C22.6971 7.06126 25.0245 6.0972 27.4514 6.0972ZM40.2926 37.8798C39.892 37.7957 39.4788 37.7913 39.0766 37.8669C38.6743 37.9425 38.2909 38.0965 37.9482 38.3203C37.6054 38.544 37.3102 38.8331 37.0792 39.171C36.8482 39.5088 36.686 39.8889 36.6019 40.2894C36.5178 40.69 36.5134 41.1032 36.5889 41.5054C36.6645 41.9077 36.8186 42.2911 37.0423 42.6338C37.2661 42.9766 37.5551 43.2718 37.893 43.5028C38.2309 43.7338 38.6109 43.896 39.0115 43.9801C45.9353 45.3527 48.8025 47.8233 48.8025 48.7994C48.8025 50.5685 41.3296 54.8997 27.4514 54.8997C13.5732 54.8997 6.10031 50.5685 6.10031 48.7994C6.10031 47.8233 8.96746 45.3527 15.8913 43.8581C16.2919 43.774 16.6719 43.6118 17.0098 43.3808C17.3477 43.1498 17.6367 42.8545 17.8605 42.5118C18.0842 42.1691 18.2383 41.7857 18.3139 41.3834C18.3894 40.9812 18.385 40.568 18.3009 40.1674C18.2168 39.7669 18.0546 39.3868 17.8236 39.049C17.5926 38.7111 17.2974 38.422 16.9546 38.1983C16.6119 37.9745 16.2285 37.8204 15.8262 37.7449C15.424 37.6693 15.0108 37.6737 14.6102 37.7578C5.33777 39.8929 0 43.8886 0 48.7994C0 56.8213 13.8172 61 27.4514 61C41.0856 61 54.9028 56.8213 54.9028 48.7994C54.9028 43.8886 49.565 39.8929 40.2926 37.8798Z" fill="white"/>
</svg>
