<svg width="21" height="22" viewBox="0 0 21 22" fill="none" xmlns="http://www.w3.org/2000/svg">
<g clip-path="url(#clip0_103_338)">
<path d="M4.78954 5.78947C2.23569 5.78947 0.157959 7.8672 0.157959 10.4211V17.3684C0.157959 19.9223 2.23569 22 4.78954 22H16.3685C18.9223 22 21.0001 19.9223 21.0001 17.3684V10.4211C21.0001 7.8672 18.9223 5.78947 16.3685 5.78947H11.7369V4.30957C12.4257 3.90789 12.8948 3.16927 12.8948 2.31579C12.8948 1.03863 11.8562 0 10.579 0C9.30185 0 8.26322 1.03863 8.26322 2.31579C8.26322 3.16927 8.73229 3.90789 9.42112 4.30957V5.78947H4.78954ZM16.3685 8.10526C17.6456 8.10526 18.6843 9.14389 18.6843 10.4211V17.3684C18.6843 18.6456 17.6456 19.6842 16.3685 19.6842H4.78954C3.51238 19.6842 2.47375 18.6456 2.47375 17.3684V10.4211C2.47375 9.14389 3.51238 8.10526 4.78954 8.10526H16.3685Z" fill="white"/>
<path d="M7.10534 13.8947C8.38432 13.8947 9.42113 12.8579 9.42113 11.5789C9.42113 10.3 8.38432 9.26315 7.10534 9.26315C5.82636 9.26315 4.78955 10.3 4.78955 11.5789C4.78955 12.8579 5.82636 13.8947 7.10534 13.8947Z" fill="white"/>
<path d="M14.0527 13.8947C15.3317 13.8947 16.3685 12.8579 16.3685 11.5789C16.3685 10.3 15.3317 9.26315 14.0527 9.26315C12.7738 9.26315 11.7369 10.3 11.7369 11.5789C11.7369 12.8579 12.7738 13.8947 14.0527 13.8947Z" fill="white"/>
<path d="M12.8948 16.2105H8.26324C7.62385 16.2105 7.10535 16.729 7.10535 17.3684C7.10535 18.0078 7.62385 18.5263 8.26324 18.5263H12.8948C13.5342 18.5263 14.0527 18.0078 14.0527 17.3684C14.0527 16.729 13.5342 16.2105 12.8948 16.2105Z" fill="white"/>
</g>
<defs>
<clipPath id="clip0_103_338">
<rect width="20.8421" height="22" fill="white" transform="translate(0.157959)"/>
</clipPath>
</defs>
</svg>
